<svg xmlns="http://www.w3.org/2000/svg" viewBox="0 0 48 48" width="100" height="100" baseProfile="basic"><path fill="#2684ff" d="M40.65 19.652C40.65 10.456 33.194 3 23.998 3 15.801 2.988 8.815 8.946 7.533 17.042S11.201 32.962 19 35.485v8.344A1.17 1.17 0 0020.171 45h7.658A1.17 1.17 0 0029 43.829v-8.338c6.879-2.215 11.642-8.612 11.65-15.839zm-16.652 5.627a5.63 5.63 0 110-11.26 5.63 5.63 0 010 11.26z"/><linearGradient id="a" x1="32.213" x2="32.213" y1="35.497" y2="3" gradientUnits="userSpaceOnUse"><stop offset="0" stop-color="#0052cc"/><stop offset=".044" stop-color="#0255cf"/><stop offset=".464" stop-color="#1c77f2"/><stop offset=".732" stop-color="#2684ff"/></linearGradient><path fill="url(#a)" d="M23.875 3v11.026a5.63 5.63 0 010 11.26 5.146 5.146 0 015.146 5.146v5.065a16.651 16.651 0 0011.323-18.449A16.651 16.651 0 0023.875 3z"/><path d="M26.239 24.813a5.654 5.654 0 01-.774.267c-.469.126-.959.2-1.468.2h-.003c-.04.001-.079.006-.119.006a5.146 5.146 0 015.146 5.146v5.051c.163-.053.318-.118.478-.175.167-.06.335-.119.5-.183v-4.749a6.002 6.002 0 00-3.76-5.563z" opacity=".05"/><path d="M25.466 25.079c-.469.126-.959.2-1.468.2h-.003c-.04.001-.079.006-.119.006a5.146 5.146 0 015.146 5.146v5.051c.163-.053.318-.118.478-.175v-4.933c0-2.524-1.712-4.651-4.034-5.295z" opacity=".07"/></svg>