<svg xmlns="http://www.w3.org/2000/svg" width="100" height="100" baseProfile="basic"><path fill="#6e78ac" d="M83.242 60.482c-6.349 1.924-9.957-.415-9.957-.415h-.007l-.394-.488c.131-.117.264-.242.4-.381l.019-.017-.001-.002c5.639-5.753 15.838-29.562 9.749-37.378-8.553-10.979-25.66-5.745-25.66-5.745l.064.183c-4.889-1.666-9.947-1.625-13.851.838-.661.417-1.273.873-1.844 1.357l.014-.187s-8.149-3.213-15.851-2.383c-7.954.857-12.319 6.83-12.319 15.83s6.17 30.553 10.17 34.553 6 2 7 1c.896-.896 6.588-7.387 7.771-8.738 2.143 1.4 4.575 1.743 5.983 1.748-.184.991-1.31 4.988-7.562 5.714-2.809.447-1.915 2.298.128 2.872 2.002.563 8.415 1.967 12.335-3.509-.052 3.397-.183 9.771.304 15.126.574 6.319 3.983 8.376 6.511 8.713 7.878 1.048 10.628-4.308 11.394-6.702.702-2.194 1.839-10.809 2.213-16.588l.503-.089-.004.05c8.106 1.277 12.734-1.66 14.362-3.191 1.626-1.533.637-2.809-1.47-2.171z"/><path fill="none" stroke="#1f212b" stroke-miterlimit="10" stroke-width="2" d="M39 58s-6.75 7.562-7.75 8.562-3 3-7-1-10.25-25-10.25-34 4.234-15.518 12.188-16.375C33.89 14.358 42 18 42 18"/><path fill="none" stroke="#1f212b" stroke-miterlimit="10" stroke-width="2" d="M71.213 56.947c2.681-2.106 2.968-8.713 2.489-12.734-.479-4.021.331-6.392.235-11.275-3.255-13.309-20.325-22.099-30.187-15.876s-8.854 20.137-8.375 24.062-2.444 6.539-.625 12.188 7.644 6.698 10.037 6.698c2.394 0 4.883.957 4.883 3.543s-.287 10.34.287 16.66c.574 6.319 3.983 8.376 6.511 8.713 7.878 1.048 10.628-4.309 11.394-6.702s2.052-12.439 2.298-18.096c.191-4.404 3.351-4.309 3.351-4.309s3.608 2.339 9.957.415c2.106-.638 3.096.638 1.468 2.17-1.628 1.532-6.017 4.56-14.124 3.283"/><path fill="none" stroke="#1f212b" stroke-miterlimit="10" stroke-width="2" d="M74.085 33.617s-6.523-2.242-8.71 2.195c-1.893 3.841 3.987 18.294 8.199 23.592m-39-22.787s7.652-4.612 11.801-1.867 2.561 13.356.774 17.25-2.362 7.787-2.362 7.787-.447 5.106-7.596 5.936c-2.809.447-1.915 2.298.128 2.872 2.043.574 8.681 2.043 12.574-3.83"/><path fill="none" stroke="#1f212b" stroke-linecap="round" stroke-miterlimit="10" stroke-width="2" d="M57.617 15.809S74.973 11.635 83 21.438c6.553 8.003-4.766 33.882-10.191 38.158"/><path fill="#1f212b" d="M69.154 38.037c-1.652.168-3.423-1.939-.096-2.346 3.119-.381 2.265 2.126.096 2.346zm-25.931.811c-1.824-.23-3.212-2.945.481-2.556 3.461.365 1.915 2.859-.481 2.556z"/><path fill="none" stroke="#1f212b" stroke-linecap="round" stroke-linejoin="round" stroke-miterlimit="10" d="M39.492 27.447a24.569 24.569 0 00-.641 2.213m8.957-11.181c-2.789.876-5.771 2.939-7.731 7.456m14.987-7.637s-2.11-.621-4.851-.319m-30.065 3.838c-1.921 2.074-3.369 5.451-3.173 10.945m11.344-14.209s-3.417-.258-6.503 1.833M53.549 82.6c.649 1.702 1.858 3.266 4.1 3.613m-4.819-8.617s-.095 1.358.186 3.001"/></svg>