<svg xmlns="http://www.w3.org/2000/svg" viewBox="0 0 48 48" width="100" height="100"><linearGradient id="a" x1="18.208" x2="34.159" y1="2.413" y2="46.236" gradientUnits="userSpaceOnUse"><stop offset="0" stop-color="#f09701"/><stop offset="1" stop-color="#e36001"/></linearGradient><path fill="url(#a)" d="M7.192 7.176l2.627 29.77a3 3 0 002.164 2.621l10.643 3.041a4.99 4.99 0 002.747 0l10.643-3.041a3 3 0 002.164-2.621l2.627-29.77A1.998 1.998 0 0038.816 5H9.184a2 2 0 00-1.992 2.176z"/><path fill="#f09601" d="M24 8v31.9l9.876-2.822a2 2 0 001.443-1.749l2.286-26.242A1 1 0 0036.609 8H24z"/><path fill="#fff" d="M24 25v-4h8.6l-.7 11.5-7.9 2.6v-4.2l4.1-1.4.3-4.5H24zm8.9-8l.3-4H24v4h8.9z"/><path fill="#d6e0e9" d="M24 30.9v4.2l-7.9-2.6-.4-5.5h4l.2 2.5 4.1 1.4zM19.1 17H24v-4h-9.1l.7 12H24v-4h-4.6l-.3-4z"/><path d="M33.2 13l-.3 4H19.1l.3 4h13.2l-.7 11.5-7.9 2.6-7.9-2.6-.4-5.5h4l.2 2.5 4.1 1.4 4.1-1.4.3-4.5H15.6l-.7-12h18.3m1.078-1H13.84l.062 1.058.7 12 .055.942h-.032l.078 1.073.4 5.5.049.668.636.209 7.9 2.6.312.103.313-.103 7.9-2.6.644-.212.041-.677.7-11.5.065-1.061H20.328l-.15-2h13.65l.069-.925.3-4L34.278 12zM20.623 26h6.708l-.185 2.769L24 29.843l-3.156-1.077-.148-1.846-.073-.92z" opacity=".05"/><path d="M33.2 13l-.3 4H19.1l.3 4h13.2l-.7 11.5-7.9 2.6-7.9-2.6-.4-5.5h4l.2 2.5 4.1 1.4 4.1-1.4.3-4.5H15.6l-.7-12h18.3m.539-.5H14.37l.031.529.7 12 .027.471h12.738l-.242 3.634L24 30.372l-3.628-1.239-.174-2.173-.037-.46h-4.999l.039.536.4 5.5.024.334.318.105 7.9 2.6.157.051.156-.051 7.9-2.6.322-.106.021-.339.7-11.5.032-.53H19.864l-.225-3h13.725l.035-.463.3-4 .04-.537z" opacity=".07"/></svg>