<svg xmlns="http://www.w3.org/2000/svg" viewBox="0 0 48 48" width="100" height="100"><path fill="#01579B" d="M34.932 22.478C33.769 21.56 32.206 21.001 30.5 21c-1.706.001-3.27.56-4.433 1.478-1.184.935-1.969 2.252-2.059 3.747-.091 1.536.57 2.965 1.732 4.023C26.925 31.324 28.613 32 30.501 32c1.887 0 3.574-.676 4.757-1.753 1.162-1.057 1.824-2.486 1.734-4.023-.09-1.493-.876-2.811-2.06-3.746z"/><path fill="#FF6D00" d="M45.871 25.932a13.08 13.08 0 00-1.861-5.095 14.28 14.28 0 00-3.397-3.745l.002-.002-.037-.012c-.028-.025-.05-.054-.079-.078L26.249 6.438a1.999 1.999 0 10-2.498 3.124L29.739 14H10.5C9.125 14 8 15.125 8 16.5S9.125 19 10.5 19h7.154L2.873 31.602a2.5 2.5 0 103.254 3.796l8.954-7.675a67.416 67.416 0 00-.035 1.761C15.046 33 19 42 30.682 42c8.318 0 15.28-5 15.28-13.261.072-.934.041-1.872-.091-2.807zm-6.346 3.221a8.32 8.32 0 01-1.935 2.992c-1.81 1.82-4.343 2.85-7.088 2.854-2.745.005-5.28-1.017-7.091-2.832a8.308 8.308 0 01-1.937-2.986 7.661 7.661 0 01-.444-3.335 7.806 7.806 0 01.971-3.141 8.733 8.733 0 012.154-2.524c1.76-1.414 3.999-2.179 6.345-2.182 2.346-.003 4.584.756 6.345 2.164a8.65 8.65 0 012.152 2.515 7.81 7.81 0 01.973 3.138 7.669 7.669 0 01-.445 3.337z"/></svg>