<svg xmlns="http://www.w3.org/2000/svg" viewBox="0 0 48 48" width="100" height="100"><path fill="#50e6ff" d="M36 6H12a6 6 0 00-6 6v24a6 6 0 006 6h24a6 6 0 006-6V12a6 6 0 00-6-6z"/><path fill="#092347" d="M36 40H12a4 4 0 01-4-4V12a4 4 0 014-4h24a4 4 0 014 4v24a4 4 0 01-4 4z"/><path fill="#fff" d="M14.507 15.372c0-.106.077-.195.182-.207.4-.044 1.516-.135 3.897-.135 3.588 0 6.101 1.423 6.101 5.317 0 3.512-2.391 5.573-6.249 5.573h-1.216v5.882c0 .098-.08.178-.178.178h-2.358a.178.178 0 01-.178-.178v-16.43zm2.715 8.075s1.187.008 1.455.008c2.203 0 3.205-1.306 3.205-3.056 0-1.639-.974-2.917-3.01-2.917-.839 0-1.649.048-1.649.048v5.917zm8.934 5.523c0-.095.103-.154.182-.102.504.337 1.527.914 3.111.914 1.034 0 1.688-.445 1.688-1.171 0-.804-1.105-1.387-2.017-1.882-.907-.492-2.944-1.282-2.944-3.826 0-2.255 1.802-3.615 4.256-3.615.94 0 1.977.146 2.677.401a.29.29 0 01.185.277v2.291c0 .094-.099.155-.178.103-.439-.287-1.407-.726-2.739-.726-1.109 0-1.597.54-1.597 1.09 0 .964 1.284 1.367 2.436 2.043 1.797 1 2.63 1.977 2.63 3.508 0 2.504-1.867 3.91-4.396 3.91-1.306 0-2.534-.285-3.162-.667a.286.286 0 01-.131-.251l-.001-2.297z"/></svg>