<svg xmlns="http://www.w3.org/2000/svg" viewBox="0 0 50 50" width="100" height="100"><path d="M31.494 5.15L5.928 7.002a1 1 0 00-.024.002 1 1 0 00-.039.006 1 1 0 00-.072.011 1 1 0 00-.03.008 1 1 0 00-.033.008 1 1 0 00-.072.024 1 1 0 00-.047.02 1 1 0 00-.027.01 1 1 0 00-.15.087 1 1 0 00-.026.015 1 1 0 00-.06.05 1 1 0 00-.012.01 1 1 0 00-.049.046 1 1 0 00-.03.033 1 1 0 00-.042.05 1 1 0 00-.016.02 1 1 0 00-.043.063 1 1 0 00-.011.02 1 1 0 00-.038.064 1 1 0 00-.013.027 1 1 0 00-.03.072 1 1 0 00-.003.008 1 1 0 00-.045.174 1 1 0 00-.006.031 1 1 0 00-.008.08 1 1 0 000 .004A1 1 0 005 8v25.738a5 5 0 00.904 2.87 1 1 0 00.05.064l6.173 7.43a1 1 0 00.232.28l.391.47a1 1 0 00.168.16c.587.57 1.4.906 2.275.85l27-1.743A3.014 3.014 0 0045 41.125V15.133c0-.924-.434-1.742-1.096-2.293a1 1 0 00-.156-.145l-.484-.357a1 1 0 00-.202-.149l-8.238-6.076a5.001 5.001 0 00-3.33-.963zm.145 1.995a3.002 3.002 0 011.998.578l6.13 4.523-25.025 1.639a3.003 3.003 0 01-2.316-.873h-.002L8.254 8.84l23.385-1.695zM7 10.415l4.012 4.01.988.99v25.403L7.54 35.45A2.996 2.996 0 017 33.74V10.413zm34.936 3.72a.984.984 0 011.064.998v25.992c0 .536-.4.963-.936.998l-27 1.742a.998.998 0 01-.75-.26 1 1 0 00-.002-.001l-.001-.002c-.005-.004-.006-.01-.01-.014a1 1 0 00-.012-.016.992.992 0 01-.289-.705V16.875c0-.537.4-.963.936-.998l27-1.742zM38.496 19l-5.074.281c-.774.08-1.676.657-1.676 1.594l2.25.188v10.69l-7.781-12.001-5.832.328c-1.091.08-1.389.891-1.389 1.922h2.25v15.564s-1.052.284-1.404.375c-.748.193-.846.844-.846 1.313 0 0 3.753-.188 5.479-.318 1.959-.15 2.023-1.463 2.023-1.463l-2.25-.47V25.472s5.72 9.19 7.469 11.89c.823 1.27 1.437 1.518 2.52 1.518.887 0 1.727-.262 2.76-.82V20.697s.19-.01.788-.203c.683-.22.713-.838.713-1.494z"/></svg>