<svg xmlns="http://www.w3.org/2000/svg" width="342.698" height="140.072" viewBox="0 0 90.672 37.061" shape-rendering="geometricPrecision" text-rendering="geometricPrecision" image-rendering="optimizeQuality" fill-rule="evenodd" clip-rule="evenodd"><path d="M23.587 20.956c-1.288.918-2.104 1.475-2.45 1.672-1.845 1.1-3.532 1.65-5.058 1.65a5.744 5.744 0 01-2.502-.585c-.816-.39-1.429-.896-1.837-1.518a3.744 3.744 0 01-.612-2.103c0-1.1.372-2.502 1.118-4.206a596.63 596.63 0 001.704-3.993 1.975 1.975 0 01-.054-.48c-.497.214-.834.374-1.011.48-.994.64-1.97 1.367-2.929 2.183a55.331 55.331 0 00-2.608 2.556 22.964 22.964 0 00-.32 3.78c0 .958.053 1.917.16 2.875L.745 24.279C.248 22.29 0 20.392 0 18.582c0-1.1.107-2.219.32-3.355.212-1.135.603-2.413 1.17-3.833.391-.994.941-2.236 1.651-3.727l7.401-1.225A110.424 110.424 0 009.53 8.998a35.69 35.69 0 00-.958 2.609c1.775-1.633 3.55-2.893 5.324-3.78 1.42-.71 2.698-1.065 3.834-1.065a5.67 5.67 0 011.97.373c.674.248 1.162.638 1.464 1.17.302.533.452 1.172.452 1.918 0 1.064-.301 2.378-.905 3.94a328.79 328.79 0 00-2.076 5.324c0 .248.089.399.266.452.178.054.355.08.533.08.712 0 1.771-.372 3.178-1.116a6.421 6.421 0 01-.197-1.6c0-.851.124-1.667.373-2.448.248-.781.621-1.598 1.118-2.45.887-1.455 2.13-2.697 3.727-3.727 1.597-1.029 3.283-1.685 5.058-1.97a14.69 14.69 0 011.49-.106c1.172 0 2.22.195 3.142.586.923.39 1.686 1.03 2.29 1.917.354.567.532 1.135.532 1.703 0 .888-.444 1.757-1.331 2.61-.639.603-1.5 1.17-2.582 1.703a25.784 25.784 0 01-3.222 1.33c-.78.25-1.88.551-3.3.906a5.82 5.82 0 001.97 2.316c.851.586 1.756.879 2.715.879 1.455 0 2.91-.373 4.366-1.119.068-.034 1.18-.736 3.334-2.107.012-.17.028-.346.047-.528.053-.515.16-1.145.32-1.89.062-.294.12-.563.176-.807l7.688-.46-.57 1.986c-.232.798-.347 1.464-.347 1.996 0 .852.169 1.447.506 1.784.337.337.825.506 1.464.506.923 0 2.13-.39 3.62-1.172.71-.429 1.282-.774 1.716-1.034.012-.286.035-.589.068-.909.053-.515.16-1.145.32-1.89.062-.293.121-.561.176-.805l7.688-.459c-.183.642-.373 1.302-.57 1.983-.23.798-.346 1.464-.346 1.996 0 .852.169 1.447.506 1.784.337.337.825.506 1.464.506.923 0 2.13-.39 3.62-1.172l1.109-.67a6.68 6.68 0 01-.044-.767c0-.852.124-1.668.373-2.45.248-.78.621-1.597 1.118-2.448.887-1.456 2.13-2.698 3.727-3.728 1.597-1.029 3.283-1.685 5.058-1.97a14.69 14.69 0 011.49-.106c1.172 0 2.22.195 3.142.586.923.39 1.686 1.03 2.29 1.917.354.567.532 1.135.532 1.703 0 .888-.444 1.757-1.331 2.61-.639.603-1.5 1.17-2.582 1.703a25.788 25.788 0 01-3.221 1.33c-.781.25-1.882.551-3.302.906a5.819 5.819 0 001.97 2.316c.852.586 1.757.879 2.716.879 1.455 0 2.91-.373 4.366-1.119.07-.035 1.277-.798 3.62-2.289v2.396c-.213.142-1.065.745-2.555 1.81-1.1.781-2.006 1.331-2.716 1.65-1.775.782-3.727 1.172-5.857 1.172-1.42 0-2.68-.169-3.78-.506-1.1-.337-2.112-.931-3.035-1.783a5.994 5.994 0 01-1.35-1.722c-1.564 1.131-2.765 1.936-3.601 2.414-1.881 1.065-3.585 1.597-5.111 1.597-.857 0-1.549-.055-2.343-.426-1.349-.568-2.29-1.304-2.822-2.21a5.481 5.481 0 01-.596-1.497c-1.647 1.196-2.904 2.04-3.77 2.536-1.881 1.065-3.585 1.597-5.111 1.597-.857 0-1.548-.055-2.343-.426-1.349-.568-2.29-1.304-2.822-2.21a5.65 5.65 0 01-.673-1.863c-.37.259-1.158.817-2.361 1.677-1.1.781-2.006 1.331-2.716 1.65-1.775.782-3.727 1.172-5.857 1.172-1.42 0-2.68-.169-3.78-.506-1.1-.337-2.112-.931-3.035-1.783a6.289 6.289 0 01-.851-.926zm10.701-9.722c.036-.142.053-.355.053-.639 0-.923-.39-1.384-1.17-1.384-.107 0-.303.035-.587.106-1.065.249-1.899.923-2.502 2.024a7.097 7.097 0 00-.905 3.46c1.49-.39 2.573-.78 3.248-1.171 1.1-.603 1.721-1.402 1.863-2.396zm7.348.16L42.7 7.188l2.183-.107 2.077-5.697L54.84 0l-2.236 6.708 3.567-.16-.958 3.994c-4.525.305-9.05.585-13.577.852zm14.641 0l1.065-4.206 2.183-.107 2.077-5.697L69.482 0l-2.237 6.708 3.568-.16-.959 3.994c-4.538.307-9.097.588-13.576.852zm26.302-.16a2.8 2.8 0 00.054-.639c0-.923-.391-1.384-1.172-1.384-.106 0-.301.035-.585.106-1.065.249-1.9.923-2.503 2.024a7.1 7.1 0 00-.905 3.46c1.49-.39 2.573-.78 3.248-1.171 1.1-.603 1.721-1.402 1.863-2.396zM4.6 36.958h.821v-2.844h2.368v-.671H5.421v-2.09h2.564v-.68H4.6v6.285zm8.307 0h.811v-2.723h.765c.244.008.449.053.615.137a.99.99 0 01.406.389c.104.177.186.408.247.696.084.393.162.718.23.974.068.257.13.432.18.527h.84a3.442 3.442 0 01-.215-.625c-.078-.293-.168-.66-.27-1.1a2.307 2.307 0 00-.334-.816 1.18 1.18 0 00-.58-.452v-.028c.22-.075.418-.185.595-.331a1.58 1.58 0 00.42-.535 1.68 1.68 0 00.16-.729 1.766 1.766 0 00-.132-.682 1.447 1.447 0 00-.362-.52 1.769 1.769 0 00-.728-.386c-.295-.085-.659-.127-1.09-.127a9.523 9.523 0 00-1.558.13v6.201zm.811-5.632a2.02 2.02 0 01.306-.047c.136-.012.3-.018.496-.018.288-.002.54.04.757.12.216.083.384.21.505.382.12.172.182.393.184.663-.002.241-.06.451-.174.628a1.144 1.144 0 01-.49.417 1.811 1.811 0 01-.754.149h-.83v-2.294zm11.254 3.655l.671 1.977h.867l-2.145-6.285h-.97l-2.144 6.285h.84l.652-1.977h2.229zm-2.061-.634l.615-1.818a8.42 8.42 0 00.173-.577c.051-.19.1-.379.144-.56h.019c.045.18.095.366.146.556.051.19.112.385.18.59l.625 1.81h-1.902zm13.687 2.611h.802l-.392-6.285h-1.035l-1.119 3.04c-.14.395-.266.768-.378 1.118-.111.35-.21.683-.293.999h-.019a28.567 28.567 0 00-.634-2.117l-1.072-3.04h-1.035l-.439 6.285h.774l.168-2.695c.019-.32.036-.642.053-.97.015-.326.03-.643.042-.952.01-.308.02-.594.026-.856h.019c.088.37.193.76.314 1.165.12.404.255.83.404 1.278l1.026 2.993h.615l1.11-3.05c.158-.433.301-.848.432-1.246.129-.398.25-.777.36-1.14h.02c0 .194.002.404.008.626.007.224.014.454.025.691.01.238.02.474.033.71.012.237.023.465.036.686l.149 2.76zm9.053-3.618h-2.434v-1.986H45.8v-.68h-3.404v6.284h3.544v-.68h-2.723V34.01h2.434v-.67zm7.057 3.618l.895-3.273c.078-.269.146-.52.207-.754a15.6 15.6 0 00.278-1.297h.018c.028.21.06.42.101.635a25.624 25.624 0 00.31 1.416l.792 3.273h.849l1.78-6.285h-.83l-.829 3.17c-.098.39-.191.764-.277 1.123-.085.357-.161.707-.227 1.05h-.018c-.048-.332-.11-.68-.188-1.046a39.04 39.04 0 00-.25-1.108l-.765-3.189h-.849l-.839 3.17c-.109.408-.208.795-.298 1.162-.09.366-.162.707-.215 1.02h-.018a33.845 33.845 0 00-.288-1.395 46.524 46.524 0 00-.179-.777l-.746-3.18h-.858l1.595 6.285h.849zm12.307-6.397a2.9 2.9 0 00-1.163.235c-.354.155-.66.378-.921.667a3.07 3.07 0 00-.607 1.041 4.064 4.064 0 00-.219 1.358c.002.477.07.911.207 1.303.137.39.33.727.58 1.01.25.283.548.5.893.654.345.152.726.23 1.146.232.322 0 .63-.047.92-.139a2.654 2.654 0 001.433-1.077c.178-.265.318-.573.416-.923.098-.35.148-.741.15-1.172-.002-.47-.069-.9-.201-1.288a2.93 2.93 0 00-.57-1.009 2.517 2.517 0 00-.894-.657 2.886 2.886 0 00-1.17-.235zm-.028.662a1.748 1.748 0 011.29.54c.16.168.293.36.4.578.105.217.184.45.237.696a3.7 3.7 0 01.078.75c0 .36-.046.697-.134 1.01-.089.315-.22.592-.39.83a1.89 1.89 0 01-.633.565c-.25.135-.536.204-.858.207a1.833 1.833 0 01-.704-.136 1.802 1.802 0 01-.56-.374 2.19 2.19 0 01-.411-.561 2.9 2.9 0 01-.253-.7 3.846 3.846 0 01-.005-1.584c.053-.256.134-.495.242-.716a2.23 2.23 0 01.405-.578c.161-.164.35-.293.567-.385.216-.093.458-.14.729-.142zm7.672 5.735h.812v-2.723h.764c.244.008.45.053.616.137.164.082.3.213.405.389.104.177.187.408.247.696.084.393.162.718.23.974.069.257.13.432.18.527h.84a3.442 3.442 0 01-.214-.625c-.078-.293-.168-.66-.271-1.1a2.307 2.307 0 00-.334-.816 1.18 1.18 0 00-.58-.452v-.028c.22-.075.418-.185.595-.331.176-.145.318-.323.42-.535a1.68 1.68 0 00.16-.729 1.766 1.766 0 00-.132-.682 1.447 1.447 0 00-.362-.52 1.769 1.769 0 00-.727-.386c-.296-.085-.66-.127-1.091-.127a9.523 9.523 0 00-1.558.13v6.201zm.812-5.632c.07-.019.172-.034.306-.047.135-.012.3-.018.496-.018.287-.002.539.04.756.12.216.083.384.21.506.382.12.172.181.393.183.663-.002.241-.06.451-.174.628a1.144 1.144 0 01-.49.417 1.811 1.811 0 01-.753.149h-.83v-2.294zm7.961 5.632h.812v-2.396l.606-.69 2.06 3.086h.96l-2.452-3.618 2.276-2.667h-1.007l-1.921 2.36c-.08.102-.16.21-.244.321a14.99 14.99 0 00-.25.35h-.028v-3.03h-.812v6.284z" fill="#1f1a17" fill-rule="nonzero"/></svg>